<svg xmlns="http://www.w3.org/2000/svg" viewBox="0 0 468.84 307.07"><g data-name="Layer 2"><g data-name="Layer 1"><path fill="#fff" d="M110 51.62c19.9-30.15 29.84-45.22 42.18-49.75 32-11.76 49.64 35.44 109.65 42.63 34.37 4.12 39.85-10 93.37-5.87 24.35 1.89 41.93 3.45 61.37 14.52 10.78 6.15 41.91 26.49 50.24 64.73 9.61 44.17-18.27 79.72-23.73 86.36-39.29 47.75-113.44 51.49-159.56 42-43.9-9-49-27.17-96.31-30.51-36.68-2.58-43 7.69-84.4 4.65-33.62-2.46-70.91-5.19-90.72-32.93-20.19-28.27-9.5-64.67-7.56-71.31C14.84 81.16 45.93 51.4 59.83 57c13.34 5.33 30.55 24.39 50.17-5.38Z"/><path fill="none" stroke="#b91d34" stroke-linecap="round" stroke-linejoin="round" d="M35.16 67.33s111.45 80.85 199.36-28.2c-.11 0 87.62 102.57 188.72 18"/><path fill="#fecb5c" d="M46.84 74.71s-4.92 15.86-8.92 13.86l12 6s7.62-6.18 8.31-14.57ZM74.14 87.07s-2.1 16.48-6.39 15.2l12.86 3.84s6.44-7.42 5.66-15.82ZM133.08 95.62s3.59 16.23-.88 16.47l13.4-.74s3.55-9.15 0-16.79ZM166.22 89.44s7.65 14.75 3.4 16.14l12.75-4.17s1.07-9.76-4.35-16.22ZM197 73.49s10.94 12.5 7.14 14.86l11.39-7.08s-1.28-9.73-8.08-14.72ZM220.25 55.72s13.55 9.61 10.41 12.8l9.43-9.52s-3.51-9.16-11.29-12.43ZM104 94.47s-1.6 15.6-2.6 15.6 10 3 14 1c0 0 2.59-11.47.8-15.23.02 0-7.59.02-12.2-1.37ZM260.38 62.36s-6.5 15.29-10.28 12.89l11.33 7.19s8.21-5.39 9.74-13.68ZM314.77 86.62s-1 16.59-5.32 15.61l13.09 2.94s5.91-7.84 4.55-16.17ZM348.34 89.68s3.35 16.28-1.12 16.46l13.41-.54s3.68-9.1.23-16.79ZM381.27 82.7s6.45 14.14 2.15 15.37l14-4s.19-10.35-5-17ZM407.42 69.07s9.51 12.8 5.62 15l11.68-6.62s-.89-9.77-7.49-15ZM287.12 77.61s-5.79 14.58-6.75 14.31 8.81 5.6 13.2 4.77c0 0 5.62-10.34 4.91-14.45 0 0-7.32-2.04-11.36-4.63Z"/><path fill="#b9151c" d="M317.39 186.57H151.74c-31.79 41.84-82 20.08-82 20.08s36 41 52.7 44.34h224.23c16.74-3.34 52.71-44.34 52.71-44.34s-50.2 21.76-82-20.08Z"/><path fill="#fecb5c" d="M334.07 302.07h-196l-15.5-77.5h223l-11.5 77.5z"/><path fill="#b9151c" d="M216.07 251.07h36v53h-36zM293.74 28.57H175.4c-22.72 29.89-58.58 14.35-58.58 14.35s25.7 29.29 37.66 31.68h160.18c12-2.39 37.66-31.68 37.66-31.68s-35.86 15.54-58.58-14.35ZM309 99.57H160.13c-28.57 37.6-73.69 18.05-73.69 18.05s32.34 36.84 47.37 39.85h201.51c15-3 47.37-39.85 47.37-39.85S337.58 137.17 309 99.57Z"/><path fill="#fecb5c" d="M309.07 100.08h-149l-5.5-46.5h160l-5.5 46.5zM317.57 186.57h-167l-17-54h200l-16 54z"/><path fill="#ee1c25" d="M176.07 71.07h11v16h-11zM194.07 71.07h11v16h-11zM212.07 71.07h11v16h-11zM229.07 71.07h11v16h-11zM245.07 71.07h11v16h-11zM262.07 71.07h11v16h-11zM279.07 71.07h11v16h-11zM168.07 154.07h12.74v18.53h-12.74zM188.91 154.07h12.74v18.53h-12.74zM209.75 154.07h12.74v18.53h-12.74zM135.07 254.07h12.74v18.53h-12.74zM321.07 254.07h12.74v18.53h-12.74zM169.75 254.07h12.74v18.53h-12.74zM192.75 254.07h12.74v18.53h-12.74zM262.75 254.07h12.74v18.53h-12.74zM285.75 254.07h12.74v18.53h-12.74zM229.44 154.07h12.74v18.53h-12.74zM247.96 154.07h12.74v18.53h-12.74zM267.65 154.07h12.74v18.53h-12.74zM287.33 154.07h12.74v18.53h-12.74z"/><path fill="none" stroke="#ee1c25" stroke-miterlimit="10" stroke-width="8" d="M158.62 231.26v70.81M234.38 251.07v53M312.62 228.26v70.81M116.07 302.07h238"/><path fill="none" stroke="#fbac39" stroke-miterlimit="10" d="M351.74 62.58v4.17"/><path fill="#fbac39" d="M346.5 46.73h10.41v1.08H346.5zM346.5 59.95h10.41v1.08H346.5z"/><path fill="#b91d34" d="M355.48 47.81h-7.55a7.16 7.16 0 0 0 0 12.14h7.55a7.16 7.16 0 0 0 0-12.14Z"/><circle cx="351.74" cy="61.81" r=".77" fill="#b91d34"/><path fill="#b91d34" d="M350.74 66.75h1.69s1.47 7.58 1 9.82l-.54-.46-2.86.46s1.79-9.35.71-9.82Z"/><path fill="#d01d35" d="M350.46 47.81s-3.21 6.73 0 12.14h2.89c3.21-5.41 0-12.14 0-12.14h-2.89"/><path fill="none" stroke="#fbac39" stroke-miterlimit="10" d="M351.7 46.73v-3.66"/><path fill="#d33333" d="M352.94 73.35a2.19 2.19 0 0 1 .47 1.4 1.83 1.83 0 0 1-.56 1.37 4.71 4.71 0 0 1-.19-1.38 3.32 3.32 0 0 1 .28-1.39Z"/><path fill="none" stroke="#fbac39" stroke-miterlimit="10" d="M117.74 62.58v4.17"/><path fill="#fbac39" d="M112.5 46.73h10.41v1.08H112.5zM112.5 59.95h10.41v1.08H112.5z"/><path fill="#b91d34" d="M121.48 47.81h-7.55a7.16 7.16 0 0 0 0 12.14h7.55a7.16 7.16 0 0 0 0-12.14Z"/><circle cx="117.74" cy="61.81" r=".77" fill="#b91d34"/><path fill="#b91d34" d="M116.74 66.75h1.69s1.47 7.58 1 9.82l-.54-.46-2.86.46s1.79-9.35.71-9.82Z"/><path fill="#d01d35" d="M116.46 47.81s-3.21 6.73 0 12.14h2.89c3.21-5.41 0-12.14 0-12.14h-2.89"/><path fill="none" stroke="#fbac39" stroke-miterlimit="10" d="M117.7 46.73v-3.66"/><path fill="#d33333" d="M118.94 73.35a2.19 2.19 0 0 1 .47 1.4 1.83 1.83 0 0 1-.56 1.37 4.71 4.71 0 0 1-.19-1.38 3.32 3.32 0 0 1 .28-1.39Z"/><path fill="none" stroke="#fbac39" stroke-miterlimit="10" d="M381.37 144.74v5.7"/><path fill="#fbac39" d="M374.2 123.07h14.23v1.48H374.2zM374.2 141.14h14.23v1.48H374.2z"/><path fill="#b91d34" d="M386.48 124.55h-10.32a9.79 9.79 0 0 0 0 16.59h10.32a9.79 9.79 0 0 0 0-16.59Z"/><circle cx="381.37" cy="143.68" r="1.05" fill="#b91d34"/><path fill="#b91d34" d="M380 150.44h2.32s2 10.36 1.37 13.43l-.74-.64-3.9.64s2.43-12.79.95-13.43Z"/><path fill="#d01d35" d="M379.62 124.55s-4.39 9.19 0 16.59h3.95c4.39-7.4 0-16.59 0-16.59h-3.95"/><path fill="none" stroke="#fbac39" stroke-miterlimit="10" d="M381.32 123.07v-5"/><path fill="#d33333" d="M383 159.46a3.53 3.53 0 0 1 .49 1.9 2.79 2.79 0 0 1-.62 1.88 12.48 12.48 0 0 1-.13-1.88 6.44 6.44 0 0 1 .26-1.9Z"/><path fill="none" stroke="#fbac39" stroke-miterlimit="10" d="M397.99 240.84v7.23"/><path fill="#fbac39" d="M388.91 213.4h18.02v1.87h-18.02zM388.91 236.29h18.02v1.87h-18.02z"/><path fill="#b91d34" d="M404.45 215.27h-13.07a12.41 12.41 0 0 0 0 21h13.07a12.4 12.4 0 0 0 0-21Z"/><circle cx="397.99" cy="239.51" r="1.34" fill="#b91d34"/><path fill="#b91d34" d="M396.25 248.07h2.94s2.53 13.12 1.73 17l-.93-.8-4.94.8s3.07-16.19 1.2-17Z"/><path fill="#d01d35" d="M395.77 215.27s-5.56 11.65 0 21h5c5.56-9.37 0-21 0-21h-5"/><path fill="none" stroke="#fbac39" stroke-miterlimit="10" d="M397.92 213.4v-6.33"/><path fill="#d33333" d="M400.07 259.5a5.32 5.32 0 0 1 .53 2.4 4 4 0 0 1-.69 2.38c-.05-.84-.06-1.59-.06-2.38a11.11 11.11 0 0 1 .22-2.4Z"/><path fill="none" stroke="#fbac39" stroke-miterlimit="10" d="M70.99 240.84v7.23"/><path fill="#fbac39" d="M61.91 213.4h18.02v1.87H61.91zM61.91 236.29h18.02v1.87H61.91z"/><path fill="#b91d34" d="M77.45 215.27H64.38a12.41 12.41 0 0 0 0 21h13.07a12.4 12.4 0 0 0 0-21Z"/><circle cx="70.99" cy="239.51" r="1.34" fill="#b91d34"/><path fill="#b91d34" d="M69.25 248.07h2.94s2.53 13.12 1.73 17l-.93-.8-4.94.8s3.07-16.19 1.2-17Z"/><path fill="#d01d35" d="M68.77 215.27s-5.56 11.65 0 21h5c5.56-9.37 0-21 0-21h-5"/><path fill="none" stroke="#fbac39" stroke-miterlimit="10" d="M70.92 213.4v-6.33"/><path fill="#d33333" d="M73.07 259.5a5.32 5.32 0 0 1 .53 2.4 4 4 0 0 1-.69 2.38c0-.84-.06-1.59-.06-2.38a11.11 11.11 0 0 1 .22-2.4Z"/><path fill="none" stroke="#fbac39" stroke-miterlimit="10" d="M132.36 243.53v3.95"/><path fill="#fbac39" d="M127.39 228.53h9.85v1.02h-9.85zM127.39 241.04h9.85v1.02h-9.85z"/><path fill="#b91d34" d="M135.89 229.56h-7.14a6.77 6.77 0 0 0 0 11.48h7.14a6.77 6.77 0 0 0 0-11.48Z"/><circle cx="132.36" cy="242.8" r=".73" fill="#b91d34"/><path fill="#b91d34" d="M131.41 247.48H133s1.39 7.17 1 9.3l-.51-.44-2.7.44s1.64-8.86.62-9.3Z"/><path fill="#d01d35" d="M131.14 229.56s-3 6.36 0 11.48h2.74c3-5.12 0-11.48 0-11.48h-2.74"/><path fill="none" stroke="#fbac39" stroke-miterlimit="10" d="M132.32 228.53v-3.46"/><path fill="#d33333" d="M133.49 253.73A1.9 1.9 0 0 1 134 255a1.67 1.67 0 0 1-.54 1.3 4.28 4.28 0 0 1-.21-1.3 3 3 0 0 1 .24-1.27Z"/><path fill="none" stroke="#fbac39" stroke-miterlimit="10" d="M314.36 153.53v3.95"/><path fill="#fbac39" d="M309.39 138.53h9.85v1.02h-9.85zM309.39 151.04h9.85v1.02h-9.85z"/><path fill="#b91d34" d="M317.89 139.56h-7.14a6.77 6.77 0 0 0 0 11.48h7.14a6.77 6.77 0 0 0 0-11.48Z"/><circle cx="314.36" cy="152.8" r=".73" fill="#b91d34"/><path fill="#b91d34" d="M313.41 157.48H315s1.39 7.17.95 9.3l-.51-.44-2.7.44s1.69-8.86.67-9.3Z"/><path fill="#d01d35" d="M313.14 139.56s-3 6.36 0 11.48h2.74c3-5.12 0-11.48 0-11.48h-2.74"/><path fill="none" stroke="#fbac39" stroke-miterlimit="10" d="M314.32 138.53v-3.46"/><path fill="#d33333" d="M315.49 163.73A2 2 0 0 1 316 165a1.63 1.63 0 0 1-.54 1.3 4.28 4.28 0 0 1-.21-1.3 3 3 0 0 1 .24-1.27Z"/><path fill="none" stroke="#fbac39" stroke-miterlimit="10" d="M302.36 73.53v3.95"/><path fill="#fbac39" d="M297.39 58.53h9.85v1.02h-9.85zM297.39 71.04h9.85v1.02h-9.85z"/><path fill="#b91d34" d="M305.89 59.56h-7.14a6.77 6.77 0 0 0 0 11.48h7.14a6.77 6.77 0 0 0 0-11.48Z"/><circle cx="302.36" cy="72.8" r=".73" fill="#b91d34"/><path fill="#b91d34" d="M301.41 77.48H303s1.39 7.17.95 9.3l-.51-.44-2.7.44s1.69-8.86.67-9.3Z"/><path fill="#d01d35" d="M301.14 59.56s-3 6.36 0 11.48h2.74c3-5.12 0-11.48 0-11.48h-2.74"/><path fill="none" stroke="#fbac39" stroke-miterlimit="10" d="M302.32 58.53v-3.46"/><path fill="#d33333" d="M303.49 83.73A2 2 0 0 1 304 85a1.63 1.63 0 0 1-.54 1.3 4.28 4.28 0 0 1-.21-1.3 3 3 0 0 1 .24-1.27Z"/><path fill="none" stroke="#fbac39" stroke-miterlimit="10" d="M187.36 253.53v3.95"/><path fill="#fbac39" d="M182.39 238.53h9.85v1.02h-9.85zM182.39 251.04h9.85v1.02h-9.85z"/><path fill="#b91d34" d="M190.89 239.56h-7.14a6.77 6.77 0 0 0 0 11.48h7.14a6.77 6.77 0 0 0 0-11.48Z"/><circle cx="187.36" cy="252.8" r=".73" fill="#b91d34"/><path fill="#b91d34" d="M186.41 257.48H188s1.39 7.17 1 9.3l-.51-.44-2.7.44s1.64-8.86.62-9.3Z"/><path fill="#d01d35" d="M186.14 239.56s-3 6.36 0 11.48h2.74c3-5.12 0-11.48 0-11.48h-2.74"/><path fill="none" stroke="#fbac39" stroke-miterlimit="10" d="M187.32 238.53v-3.46"/><path fill="#d33333" d="M188.49 263.73A1.9 1.9 0 0 1 189 265a1.67 1.67 0 0 1-.54 1.3 4.28 4.28 0 0 1-.21-1.3 3 3 0 0 1 .24-1.27Z"/><path fill="none" stroke="#fbac39" stroke-miterlimit="10" d="M153.36 153.53v3.95"/><path fill="#fbac39" d="M148.39 138.53h9.85v1.02h-9.85zM148.39 151.04h9.85v1.02h-9.85z"/><path fill="#b91d34" d="M156.89 139.56h-7.14a6.77 6.77 0 0 0 0 11.48h7.14a6.77 6.77 0 0 0 0-11.48Z"/><circle cx="153.36" cy="152.8" r=".73" fill="#b91d34"/><path fill="#b91d34" d="M152.41 157.48H154s1.39 7.17 1 9.3l-.51-.44-2.7.44s1.64-8.86.62-9.3Z"/><path fill="#d01d35" d="M152.14 139.56s-3 6.36 0 11.48h2.74c3-5.12 0-11.48 0-11.48h-2.74"/><path fill="none" stroke="#fbac39" stroke-miterlimit="10" d="M153.32 138.53v-3.46"/><path fill="#d33333" d="M154.49 163.73A1.9 1.9 0 0 1 155 165a1.67 1.67 0 0 1-.54 1.3 4.28 4.28 0 0 1-.21-1.3 3 3 0 0 1 .24-1.27Z"/><path fill="none" stroke="#fbac39" stroke-miterlimit="10" d="M167.36 74.53v3.95"/><path fill="#fbac39" d="M162.39 59.53h9.85v1.02h-9.85zM162.39 72.04h9.85v1.02h-9.85z"/><path fill="#b91d34" d="M170.89 60.56h-7.14a6.77 6.77 0 0 0 0 11.48h7.14a6.77 6.77 0 0 0 0-11.48Z"/><circle cx="167.36" cy="73.8" r=".73" fill="#b91d34"/><path fill="#b91d34" d="M166.41 78.48H168s1.39 7.17 1 9.3l-.51-.44-2.7.44s1.64-8.86.62-9.3Z"/><path fill="#d01d35" d="M166.14 60.56s-3 6.36 0 11.48h2.74c3-5.12 0-11.48 0-11.48h-2.74"/><path fill="none" stroke="#fbac39" stroke-miterlimit="10" d="M167.32 59.53v-3.46"/><path fill="#d33333" d="M168.49 84.73A1.9 1.9 0 0 1 169 86a1.67 1.67 0 0 1-.54 1.3 4.28 4.28 0 0 1-.21-1.3 3 3 0 0 1 .24-1.27Z"/><path fill="none" stroke="#fbac39" stroke-miterlimit="10" d="M280.36 253.53v3.95"/><path fill="#fbac39" d="M275.39 238.53h9.85v1.02h-9.85zM275.39 251.04h9.85v1.02h-9.85z"/><path fill="#b91d34" d="M283.89 239.56h-7.14a6.77 6.77 0 0 0 0 11.48h7.14a6.77 6.77 0 0 0 0-11.48Z"/><circle cx="280.36" cy="252.8" r=".73" fill="#b91d34"/><path fill="#b91d34" d="M279.41 257.48H281s1.39 7.17.95 9.3l-.51-.44-2.7.44s1.69-8.86.67-9.3Z"/><path fill="#d01d35" d="M279.14 239.56s-3 6.36 0 11.48h2.74c3-5.12 0-11.48 0-11.48h-2.74"/><path fill="none" stroke="#fbac39" stroke-miterlimit="10" d="M280.32 238.53v-3.46"/><path fill="#d33333" d="M281.49 263.73A1.9 1.9 0 0 1 282 265a1.67 1.67 0 0 1-.54 1.3 4.28 4.28 0 0 1-.21-1.3 3 3 0 0 1 .24-1.27Z"/><path fill="none" stroke="#fbac39" stroke-miterlimit="10" d="M336.36 244.53v3.95"/><path fill="#fbac39" d="M331.39 229.53h9.85v1.02h-9.85zM331.39 242.04h9.85v1.02h-9.85z"/><path fill="#b91d34" d="M339.89 230.56h-7.14a6.77 6.77 0 0 0 0 11.48h7.14a6.77 6.77 0 0 0 0-11.48Z"/><circle cx="336.36" cy="243.8" r=".73" fill="#b91d34"/><path fill="#b91d34" d="M335.41 248.48H337s1.39 7.17.95 9.3l-.51-.44-2.7.44s1.69-8.86.67-9.3Z"/><path fill="#d01d35" d="M335.14 230.56s-3 6.36 0 11.48h2.74c3-5.12 0-11.48 0-11.48h-2.74"/><path fill="none" stroke="#fbac39" stroke-miterlimit="10" d="M336.32 229.53v-3.46"/><path fill="#d33333" d="M337.49 254.73A2 2 0 0 1 338 256a1.63 1.63 0 0 1-.54 1.3 4.28 4.28 0 0 1-.21-1.3 3 3 0 0 1 .24-1.27Z"/><path fill="none" stroke="#fbac39" stroke-miterlimit="10" d="M87.37 144.74v5.7"/><path fill="#fbac39" d="M80.2 123.07h14.23v1.48H80.2zM80.2 141.14h14.23v1.48H80.2z"/><path fill="#b91d34" d="M92.48 124.55H82.16a9.79 9.79 0 0 0 0 16.59h10.32a9.79 9.79 0 0 0 0-16.59Z"/><circle cx="87.37" cy="143.68" r="1.05" fill="#b91d34"/><path fill="#b91d34" d="M86 150.44h2.32s2 10.36 1.37 13.43l-.74-.64-3.9.64s2.43-12.79.95-13.43Z"/><path fill="#d01d35" d="M85.62 124.55s-4.39 9.19 0 16.59h3.95c4.39-7.4 0-16.59 0-16.59h-3.95"/><path fill="none" stroke="#fbac39" stroke-miterlimit="10" d="M87.32 123.07v-5"/><path fill="#d33333" d="M89 159.46a3.53 3.53 0 0 1 .49 1.9 2.79 2.79 0 0 1-.62 1.88 12.48 12.48 0 0 1-.13-1.88 6.44 6.44 0 0 1 .26-1.9Z"/><path fill="#ee1c25" d="M69.57 207.57s151 69 330 0l-1.53.59 1.34-1.51s-50.19 21.75-82-20.08H151.75c-31.8 41.83-82 20.08-82 20.08l1.47 1.64M86.57 117.57s128.26 58.63 294.13.82h-.08l-1.75.6-.2.06C367 122.8 332.44 130.41 309 99.57H160.13c-24.93 32.81-62.46 22.1-71.62 18.84M352.57 42.57c-148 45-236 0-236 0l2.78 1.29h.05c8.62 2.86 36.93 9.77 56-15.31h118.34c14.26 18.78 33.69 19.64 46.18 17.69"/><path fill="#6d2632" d="m407.21 304.13 8.68-86.71.04 1.37-2.64-84.39-.03-.83.03-.16 13.09-80.75-2.81 81.75v-.99l13.26 83.39v.02l.04 1.35 2.32 87.12-31.98-1.17z"/><path fill="#6d2632" d="m307.7 77.42 44.89 12.67.18.07h.07l34.23 17.52-2.79.26 22.16-19.37a3.32 3.32 0 0 1 5.37 1.64l.05.19L423 133.08a4.5 4.5 0 0 1-8.71 2.27 1.89 1.89 0 0 1-.05-.23L405.31 92l5.41 1.84-23.27 18-.11.09a2.39 2.39 0 0 1-2.68.17l-33.14-19.5.25.1Z"/><path fill="#6d2632" d="M326.76 66.84c1.4 1.54 2.72 3.12 4 4.72s2.58 3.21 3.81 4.85 2.48 3.28 3.69 4.93 2.39 3.34 3.56 5l1 1.46-1.38 1.38q-5 5-10.16 9.7l-.71.67h-1q-4.61 0-9.21-.12c-3.07-.09-6.14-.2-9.22-.39l1.31-.49c-2.55 2-5.17 3.94-7.79 5.87-1.34.93-2.66 1.88-4 2.8s-2.72 1.83-4.12 2.68c1-1.28 2.1-2.51 3.19-3.74s2.19-2.41 3.29-3.62c2.25-2.35 4.5-4.71 6.82-7l.46-.45h.85c3.08-.18 6.15-.29 9.22-.38s6.14-.12 9.21-.13l-1.69.66q5.18-4.76 10.52-9.31l-.37 2.83q-1.54-2.66-3-5.34T332.13 78c-1-1.81-1.88-3.66-2.79-5.51s-1.77-3.74-2.58-5.65ZM369.34 66.84c2 2.13 3.9 4.35 5.72 6.59s3.57 4.55 5.29 6.87l.27.37.08.9c.74 8.05 1 16.1 1 24.15v1.13l-.65.9-2.25 3.11c-.74 1-1.53 2-2.29 3.08q-2.3 3.07-4.7 6.07l-.73.91-.78.22c-4.1 1.16-8.23 2.23-12.42 3.15-2.09.46-4.19.9-6.31 1.28s-4.25.73-6.42 1c1.86-1.14 3.76-2.17 5.66-3.19s3.83-1.95 5.76-2.87c3.87-1.85 7.78-3.55 11.73-5.16l-1.51 1.12q2.06-3.25 4.2-6.43c.72-1.06 1.42-2.13 2.16-3.17l2.2-3.15-.65 2c0-8 .3-16.1 1-24.15l.35 1.28c-1.25-2.6-2.48-5.21-3.61-7.88s-2.15-5.36-3.1-8.13ZM315.42 208.35l43.73 2.24-1 .1 13.66-5.27-.88.45a31.81 31.81 0 0 1 4.15-2.81 16.24 16.24 0 0 1 2.54-1.18 9.48 9.48 0 0 1 1.69-.42l.53-.06h.27a3.46 3.46 0 0 1 .44 0 4.51 4.51 0 0 1 .94.15 5.22 5.22 0 0 1 .82.29 6.62 6.62 0 0 1 2 1.49 10 10 0 0 1 1.1 1.38 18.5 18.5 0 0 1 1.37 2.49 33 33 0 0 1 1.77 4.81l-4.83-3 34.4-9.83a5.35 5.35 0 0 1 5.16 1.26l.46.43 8 7.59a6.51 6.51 0 0 1-9 9.45c-.16-.16-.33-.33-.47-.5l-7.03-8.41 5.62 1.7-35.25 6.14-.42.08a3.82 3.82 0 0 1-4.41-3.1 25.85 25.85 0 0 0-.92-3.69 10.94 10.94 0 0 0-.61-1.51c-.09-.2-.19-.35-.22-.41s0 0 .31.12l.3.09h.39a.87.87 0 0 0 .17 0 2.31 2.31 0 0 0-.49.06 9.68 9.68 0 0 0-1.57.53 25.73 25.73 0 0 0-3.47 1.85l-.36.22a1.75 1.75 0 0 1-.51.22l-14.13 3.8-.24.07a2 2 0 0 1-.72 0ZM332.42 191.54a69 69 0 0 1 7.07-2.77c2.37-.8 4.75-1.51 7.15-2.15s4.79-1.21 7.2-1.74 4.84-1 7.26-1.39l-3.27 4.79q-.7-2.67-1.33-5.37c-.41-1.8-.81-3.6-1.16-5.41s-.68-3.63-1-5.45-.56-3.66-.79-5.5l-.09-.67a1.71 1.71 0 0 1 .09-.75c.47-1.32.93-2.64 1.46-3.94s1-2.62 1.59-3.91a73.9 73.9 0 0 1 3.78-7.69 72 72 0 0 1 0 8.57c-.09 1.41-.18 2.81-.32 4.21s-.29 2.79-.44 4.18v-1.42c.62 1.75 1.2 3.5 1.75 5.27s1.08 3.53 1.55 5.32.94 3.57 1.38 5.36.83 3.59 1.21 5.4v.19a3.82 3.82 0 0 1-2.95 4.54l-.36.06c-2.45.28-4.9.52-7.36.69s-4.93.3-7.41.34-5 0-7.46-.08a69.81 69.81 0 0 1-7.55-.68Z"/><path fill="#6d2632" d="m377.84 208.17-35.19-36.28 41.07 29.46a4.52 4.52 0 1 1-5.27 7.35 6.27 6.27 0 0 1-.61-.53Z"/><path fill="#eaa0ca" d="M371.72 82.71c0 3 2.07 5.48 4.61 5.48s4.61-2.46 4.61-5.48-1.75-2.84-4.29-2.84-4.93-.19-4.93 2.84ZM360.29 100.47c0 3 1.74 2.83 4.28 2.83s4.61-2.45 4.61-5.48-2.06-5.48-4.61-5.48-4.28 5.1-4.28 8.13Z"/><path fill="#e0adcd" d="M366 75.9c0 2 1.67 6.24 3.34 6.24s2.7-4.25 2.7-6.24a3.07 3.07 0 1 0-6 0ZM373.31 93.67a3.33 3.33 0 0 0 3 3.58c1.67 0 3.34 1 3.34-.94s-1.67-6.23-3.34-6.23a3.34 3.34 0 0 0-3 3.59ZM364.42 108c0 2 1.67 6.24 3.33 6.24s2.7-4.25 2.7-6.24a3.06 3.06 0 1 0-6 0ZM357.37 119.2c-2 .26-6 2.47-5.74 4.12s5.68 3.64 7.65 3.38 2.27-3.33 2.05-5a3.34 3.34 0 0 0-3.96-2.5ZM370.14 100.47a3.06 3.06 0 1 0 6 0c0-2-1-1-2.7-1s-3.3-.99-3.3 1ZM362.19 125.35a3.07 3.07 0 1 0 6 0c0-2-1-.94-2.7-.94s-3.3-1.04-3.3.94Z"/><path fill="#eaa0ca" d="M310.08 99c0 3 1.75 2.83 4.29 2.83s4.63-2.49 4.63-5.52-2.06-5.48-4.61-5.48-4.31 5.1-4.31 8.17ZM338.68 86.49c0 3 2.06 5.47 4.61 5.47s4.92.2 4.92-2.83-2.38-8.13-4.92-8.13-4.61 2.46-4.61 5.49ZM320.57 75.53c0 3 1.74 2.83 4.29 2.83s4.6-2.45 4.6-5.48-2.06-5.48-4.6-5.48-4.29 5.1-4.29 8.13Z"/><path fill="#e0adcd" d="M332.64 89.13c0 2 1 1 2.7 1a3.64 3.64 0 0 0 0-7.18c-1.67-.05-2.7 4.2-2.7 6.18ZM347.64 97.46c0 2 1 .94 2.7.94a3.64 3.64 0 0 0 0-7.18c-1.67 0-2.7 4.25-2.7 6.24ZM354.25 116.15c0 2 1 .94 2.7.94a3.64 3.64 0 0 0 0-7.18c-1.67 0-2.7 4.26-2.7 6.24ZM313.26 78.17c0 2 1 1 2.7 1a3.64 3.64 0 0 0 0-7.18c-1.67-.05-2.7 4.2-2.7 6.18ZM330.42 75.53a3.06 3.06 0 1 0 6 0c0-2-1-1-2.7-1s-3.3-.99-3.3 1ZM349.42 86.23a3.06 3.06 0 1 0 6 0c0-2-1-.94-2.7-.94s-3.3-1.04-3.3.94Z"/><path fill="#eaa0ca" d="M276.69 291.69c1.11 2.72 2.61 1.64 4.9.31s3.24-4.6 2.13-7.32-3.87-3.86-6.16-2.53-1.98 6.85-.87 9.54ZM313.82 109.8c1.11 2.72 3.87 3.85 6.16 2.53s4.5-2.39 3.38-5.11-5.13-6.07-7.42-4.74-3.24 4.6-2.12 7.32ZM293.5 109.37c1.11 2.72 2.61 1.64 4.9.32s3.24-4.61 2.13-7.33-3.87-3.85-6.16-2.53-1.98 6.82-.87 9.54Z"/><path fill="#e0adcd" d="M302.71 96.48a2.82 2.82 0 0 0 4 1.65c1.5-.86 3.38-.8 2.65-2.58s-3.8-4.74-5.3-3.87a3.93 3.93 0 0 0-1.35 4.8ZM309.36 115.32c.73 1.78 1.28.31 2.78-.56a3.9 3.9 0 0 0 1.39-4.79 2.81 2.81 0 0 0-4-1.66c-1.53.87-.9 5.23-.17 7.01ZM287.9 115.55c.73 1.78 1.28.31 2.78-.55a3.92 3.92 0 0 0 1.39-4.8 2.81 2.81 0 0 0-4-1.66c-1.53.87-.9 5.23-.17 7.01ZM252.9 169.07c.73 1.78 1.28.31 2.78-.56a3.91 3.91 0 0 0 1.39-4.8 2.82 2.82 0 0 0-4-1.65c-1.53.86-.9 5.23-.17 7.01ZM277.51 228.76c.73 1.78 3.79 4.74 5.29 3.87s.87-5.23.14-7a2.83 2.83 0 0 0-4-1.66 3.92 3.92 0 0 0-1.43 4.79ZM306.51 150.27c.73 1.78 3.79 4.74 5.29 3.87s.87-5.23.14-7a2.83 2.83 0 0 0-4-1.66 3.92 3.92 0 0 0-1.43 4.79ZM302.36 104.25a2.81 2.81 0 0 0 4 1.65 3.93 3.93 0 0 0 1.4-4.8c-.73-1.78-1.28-.31-2.78.56s-3.35.8-2.62 2.59Z"/><path fill="#eaa0ca" d="M355.52 143.92c0 3 2.06 5.48 4.61 5.48s4.6-2.45 4.6-5.48-1.74-2.83-4.29-2.83-4.92-.19-4.92 2.83ZM362.19 172.64c0 3 2.06 5.48 4.61 5.48s4.92.19 4.92-2.83-2.38-8.13-4.92-8.13-4.61 2.46-4.61 5.48Z"/><path fill="#e0adcd" d="M357.11 154.88a3.34 3.34 0 0 0 3 3.59c1.66 0 3.33 1 3.33-.94s-1.67-6.24-3.33-6.24a3.34 3.34 0 0 0-3 3.59ZM350.12 182.85c0 2 1 .94 2.7.94a3.64 3.64 0 0 0 0-7.18c-1.67 0-2.7 4.25-2.7 6.24ZM340.9 174.91c0 2 1.67 6.23 3.34 6.23s2.7-4.25 2.7-6.23a3.07 3.07 0 1 0-6 0ZM348.21 169.24c0 2 1.67 6.24 3.34 6.24s2.7-4.26 2.7-6.24a3.07 3.07 0 1 0-6 0ZM351.07 150.73c0 2 1.67 6.23 3.34 6.23s2.7-4.25 2.7-6.23a3.07 3.07 0 1 0-6 0Z"/><path fill="#eaa0ca" d="M319.71 214.85c1.12 2.72 2.62 1.64 4.9.32s3.24-4.6 2.13-7.32-3.87-3.86-6.16-2.53-1.98 6.81-.87 9.53ZM339.23 193.05c1.12 2.72 3.87 3.85 6.16 2.53s4.5-2.39 3.39-5.11-5.13-6.07-7.42-4.74-3.24 4.6-2.13 7.32ZM357 188.78c1.11 2.72 3.87 3.85 6.16 2.53s4.5-2.39 3.39-5.11-5.13-6.07-7.42-4.75-3.21 4.61-2.13 7.33ZM326 265.69c1.12 2.72 2.61 1.64 4.9.32s3.24-4.6 2.13-7.32-3.87-3.86-6.16-2.53-1.97 6.84-.87 9.53Z"/><path fill="#e0adcd" d="M325.53 190.84a2.83 2.83 0 0 0 4 1.66c1.5-.87 3.38-.81 2.65-2.59s-3.79-4.74-5.29-3.87a3.92 3.92 0 0 0-1.36 4.8ZM284.41 169.6c.73 1.78 1.28.31 2.78-.56a3.91 3.91 0 0 0 1.39-4.8 2.81 2.81 0 0 0-4-1.65c-1.53.86-.9 5.23-.17 7.01ZM332.77 188.76a2.83 2.83 0 0 0 4 1.66 3.92 3.92 0 0 0 1.39-4.8c-.73-1.78-1.28-.31-2.78.56s-3.38.82-2.61 2.58Z"/><path fill="#eaa0ca" d="M376.42 195.31c1.2 2.67 2.66 1.52 4.9.1a6 6 0 0 0 1.89-7.42c-1.19-2.67-4-3.67-6.23-2.25s-1.76 6.9-.56 9.57Z"/><path fill="#e0adcd" d="M371 201.74c.79 1.75 1.29.26 2.76-.68a4 4 0 0 0 1.24-4.86 2.81 2.81 0 0 0-4.09-1.47c-1.45.94-.67 5.27.09 7.01ZM383.06 199.66c.78 1.75 3.94 4.57 5.41 3.63s.7-5.26-.09-7a2.79 2.79 0 0 0-4.08-1.48 4 4 0 0 0-1.24 4.85Z"/><path fill="#eaa0ca" d="M360.58 218.9a4.16 4.16 0 0 0 6.44-1.22 6.18 6.18 0 0 0-1-7.65c-2.06-1.78-3 0-4.45 2.46s-3.05 4.64-.99 6.41Z"/><path fill="#e0adcd" d="M352.59 220.42c1.35 1.16 5.23 2.05 6.21.44s-1.31-5.09-2.66-6.26a2.73 2.73 0 0 0-4.22.81 4 4 0 0 0 .67 5.01ZM370.07 211c1.35 1.16 5.23 2.05 6.2.45s-1.31-5.1-2.66-6.26a2.71 2.71 0 0 0-4.21.8 4 4 0 0 0 .67 5.01ZM371.83 221.31a3.5 3.5 0 0 0 2.7-3.93c-.17-2 .54-4-1.12-3.85s-5.05 2.59-4.89 4.56 1.65 3.42 3.31 3.22Z"/><path fill="#eaa0ca" d="M350.32 205c-1.23-2.65-2.68-1.48-4.9 0a6 6 0 0 0-1.81 7.44c1.23 2.65 4 3.62 6.26 2.16s1.68-6.95.45-9.6Z"/><path fill="#e0adcd" d="M349.31 218.6c-.81-1.74-1.29-.23-2.75.72a4 4 0 0 0-1.19 4.88 2.78 2.78 0 0 0 4.1 1.41c1.46-.96.64-5.27-.16-7.01ZM341.39 211.71c-.8-1.74-4-4.51-5.45-3.55s-.64 5.28.17 7a2.78 2.78 0 0 0 4.1 1.41 4 4 0 0 0 1.18-4.86ZM309.73 75.6c1.08-1.51-.27-1.51-1.54-2.8a2.71 2.71 0 0 0-4.26.42 4.08 4.08 0 0 0 .35 5.06c1.27 1.28 4.37-1.17 5.45-2.68ZM323.32 83.08c0 2 1.67 6.24 3.33 6.24s2.7-4.25 2.7-6.24a3.06 3.06 0 1 0-6 0Z"/><path fill="#eaa0ca" d="M376.46 221.85c1.2 2.67 2.66 1.53 4.91.1a6 6 0 0 0 1.89-7.42c-1.2-2.67-4-3.67-6.24-2.25s-1.76 6.91-.56 9.57Z"/><path fill="#e0adcd" d="M374.43 109.15c0 2 1 .94 2.7.94a3.64 3.64 0 0 0 0-7.18c-1.67 0-2.7 4.25-2.7 6.24Z"/><path fill="#6d2632" d="m24.34 305.3 2.33-87.12.03-1.35.01-.02 13.25-83.39v.99l-2.8-81.75 13.08 80.75.03.16-.03.83-2.63 84.39.04-1.37 8.67 86.71-31.98 1.17z"/><path fill="#6d2632" d="M155.84 77.42 111.76 92.7l.25-.1-33.14 19.5a2.38 2.38 0 0 1-2.67-.16l-.12-.1-23.27-18L58.23 92l-8.91 43.15a4.5 4.5 0 1 1-8.81-1.82 1.74 1.74 0 0 1 .05-.22l11.12-42.67v-.17a3.31 3.31 0 0 1 4-2.37 3.45 3.45 0 0 1 1.34.71L79.26 108l-2.79-.26 34.22-17.54h.07l.18-.07Z"/><path fill="#6d2632" d="M136.77 66.84c-.81 1.91-1.68 3.78-2.58 5.63s-1.82 3.7-2.79 5.51-1.92 3.63-2.91 5.43-2 3.57-3 5.34l-.37-2.83q5.36 4.55 10.52 9.31l-1.69-.66c3.07 0 6.14 0 9.22.13s6.14.2 9.21.38h.86l.45.45c2.32 2.26 4.57 4.62 6.82 7 1.1 1.21 2.22 2.4 3.3 3.62s2.16 2.46 3.19 3.74c-1.41-.85-2.77-1.76-4.12-2.68s-2.68-1.87-4-2.8c-2.63-1.93-5.25-3.86-7.8-5.87l1.31.49c-3.07.19-6.14.3-9.21.39s-6.15.12-9.22.12h-1l-.72-.67c-3.44-3.17-6.84-6.4-10.15-9.7l-1.39-1.38 1-1.46q1.75-2.52 3.56-5c1.21-1.65 2.44-3.3 3.69-4.93s2.52-3.25 3.81-4.85 2.62-3.17 4.01-4.71ZM94.19 66.84c-.94 2.77-2 5.47-3.17 8.13s-2.36 5.28-3.62 7.88l.36-1.28c.74 8.05 1 16.1 1 24.15l-.64-2 2.2 3.15c.74 1 1.43 2.11 2.16 3.17q2.14 3.18 4.19 6.43l-1.51-1.12c4 1.61 7.87 3.31 11.73 5.16 1.94.92 3.86 1.87 5.77 2.87s3.79 2.05 5.65 3.19c-2.17-.24-4.29-.6-6.42-1s-4.22-.82-6.31-1.28c-4.18-.92-8.32-2-12.42-3.15l-.78-.22-.72-.91c-1.61-2-3.17-4-4.71-6.07-.76-1-1.54-2-2.29-3.08l-2.25-3.11-.65-.9v-1.13c0-8 .29-16.1 1-24.15l.09-.9.27-.37c1.71-2.32 3.45-4.62 5.28-6.87s3.77-4.43 5.79-6.59ZM148.11 208.35l-43.25 6.84a1.88 1.88 0 0 1-.71 0l-.24-.07-14.14-3.8a1.83 1.83 0 0 1-.5-.21l-.37-.23a25.62 25.62 0 0 0-3.46-1.88 9.76 9.76 0 0 0-1.58-.53 2.31 2.31 0 0 0-.49-.06.74.74 0 0 0 .16 0h.4l.29-.09c.32-.14.34-.19.31-.12s-.12.21-.22.41a11 11 0 0 0-.6 1.51 24.61 24.61 0 0 0-.93 3.69 3.81 3.81 0 0 1-4.39 3.12l-.42-.08-35.25-6.14 5.62-1.7-7.16 8.39a6.51 6.51 0 1 1-9.9-8.45c.15-.17.31-.34.47-.5l8-7.59.46-.43a5.36 5.36 0 0 1 5.16-1.26L79.72 209l-4.83 3a34.21 34.21 0 0 1 1.77-4.81A17.57 17.57 0 0 1 78 204.7a10.69 10.69 0 0 1 1.09-1.38 6.62 6.62 0 0 1 2.05-1.49 5.22 5.22 0 0 1 .82-.29 4.62 4.62 0 0 1 .94-.15 3.64 3.64 0 0 1 .45 0h.26l.53.06a9.48 9.48 0 0 1 1.69.42 16.37 16.37 0 0 1 2.55 1.18 31.71 31.71 0 0 1 4.14 2.81l-.87-.45 13.65 5.27-1-.1ZM131.11 191.54a69.63 69.63 0 0 1-7.55.68c-2.5.12-5 .13-7.47.08s-5-.17-7.41-.34-4.91-.41-7.36-.69A3.83 3.83 0 0 1 98 187c0-.12 0-.24.06-.35v-.2q.57-2.72 1.21-5.4c.44-1.79.89-3.58 1.39-5.36s1-3.55 1.54-5.32 1.13-3.52 1.75-5.27v1.42c-.16-1.39-.34-2.78-.45-4.18s-.23-2.8-.31-4.21a72 72 0 0 1 0-8.57 72 72 0 0 1 3.78 7.69c.56 1.29 1.1 2.6 1.6 3.91s1 2.62 1.46 3.94a1.61 1.61 0 0 1 .08.75l-.08.67c-.24 1.84-.5 3.68-.8 5.5s-.62 3.65-1 5.45-.76 3.61-1.17 5.41-.86 3.59-1.32 5.37l-3.28-4.79q3.64.62 7.26 1.39c2.41.53 4.82 1.08 7.21 1.74s4.78 1.35 7.15 2.15a69.7 69.7 0 0 1 7.03 2.8Z"/><path fill="#6d2632" d="m79.82 201.35 41.06-29.46-35.19 36.28a4.52 4.52 0 1 1-6.48-6.29 4.37 4.37 0 0 1 .61-.53Z"/><path fill="#eaa0ca" d="M91.81 82.71c0 3-2.06 5.48-4.61 5.48s-4.61-2.46-4.61-5.48 1.75-2.84 4.29-2.84 4.93-.19 4.93 2.84ZM103.25 100.47c0 3-1.75 2.83-4.29 2.83s-4.61-2.45-4.61-5.48 2.06-5.48 4.61-5.48 4.29 5.1 4.29 8.13Z"/><path fill="#e0adcd" d="M97.53 75.9c0 2-1.67 6.24-3.34 6.24s-2.7-4.25-2.7-6.24a3.07 3.07 0 1 1 6 0ZM90.22 93.67a3.33 3.33 0 0 1-3 3.58c-1.66 0-3.33 1-3.33-.94s1.67-6.23 3.33-6.23a3.34 3.34 0 0 1 3 3.59ZM99.12 108c0 2-1.67 6.24-3.34 6.24s-2.7-4.25-2.7-6.24a3.07 3.07 0 1 1 6 0ZM106.16 119.2c2 .26 6 2.47 5.75 4.12s-5.69 3.64-7.65 3.38-2.27-3.33-2.05-5a3.33 3.33 0 0 1 3.95-2.5ZM93.4 100.47a3.07 3.07 0 1 1-6 0c0-2 1-1 2.7-1s3.3-.99 3.3 1ZM101.34 125.35a3.07 3.07 0 1 1-6 0c0-2 1-.94 2.71-.94s3.29-1.04 3.29.94Z"/><path fill="#eaa0ca" d="M153.45 99c0 3-1.74 2.83-4.29 2.83s-4.6-2.45-4.6-5.48 2.06-5.48 4.6-5.48 4.29 5.06 4.29 8.13ZM124.86 86.49c0 3-2.07 5.47-4.61 5.47s-4.93.2-4.93-2.83S117.7 81 120.25 81s4.61 2.46 4.61 5.49ZM143 75.53c0 3-1.75 2.83-4.29 2.83s-4.61-2.45-4.61-5.48 2.06-5.48 4.61-5.48 4.29 5.1 4.29 8.13Z"/><path fill="#e0adcd" d="M130.89 89.13c0 2-1 1-2.7 1a3.64 3.64 0 0 1 0-7.18c1.67-.05 2.7 4.2 2.7 6.18ZM115.89 97.46c0 2-1 .94-2.7.94a3.64 3.64 0 0 1 0-7.18c1.67 0 2.7 4.25 2.7 6.24ZM109.29 116.15c0 2-1 .94-2.71.94a3.65 3.65 0 0 1 0-7.18c1.67 0 2.71 4.26 2.71 6.24ZM150.28 78.17c0 2-1 1-2.71 1a3.65 3.65 0 0 1 0-7.18c1.67-.05 2.71 4.2 2.71 6.18ZM133.12 75.53a3.07 3.07 0 1 1-6 0c0-2 1-1 2.7-1s3.3-.99 3.3 1ZM114.12 86.23a3.07 3.07 0 1 1-6 0c0-2 1-.94 2.7-.94s3.3-1.04 3.3.94Z"/><path fill="#eaa0ca" d="M186.84 291.69c-1.11 2.72-2.61 1.64-4.9.31s-3.24-4.6-2.12-7.32 3.87-3.86 6.16-2.53 2.02 6.85.86 9.54ZM149.72 109.8c-1.12 2.72-3.87 3.85-6.16 2.53s-4.5-2.39-3.39-5.11 5.13-6.07 7.42-4.74 3.24 4.6 2.13 7.32ZM170 109.37c-1.11 2.72-2.61 1.64-4.9.32a6 6 0 0 1-2.12-7.33c1.11-2.72 3.87-3.85 6.16-2.53s2.01 6.82.86 9.54Z"/><path fill="#e0adcd" d="M160.82 96.48a2.81 2.81 0 0 1-4 1.65c-1.5-.86-3.38-.8-2.65-2.58s3.79-4.74 5.29-3.87a3.91 3.91 0 0 1 1.36 4.8ZM154.17 115.32c-.73 1.78-1.28.31-2.77-.56A3.91 3.91 0 0 1 150 110a2.82 2.82 0 0 1 4-1.66c1.54.84.9 5.2.17 6.98ZM175.63 115.55c-.73 1.78-1.27.31-2.77-.55a3.92 3.92 0 0 1-1.4-4.8 2.82 2.82 0 0 1 4-1.66c1.54.87.9 5.23.17 7.01ZM210.63 169.07c-.73 1.78-1.27.31-2.77-.56a3.92 3.92 0 0 1-1.4-4.8 2.82 2.82 0 0 1 4-1.65c1.54.86.9 5.23.17 7.01ZM186 228.76c-.73 1.78-3.8 4.74-5.3 3.87s-.86-5.23-.13-7a2.82 2.82 0 0 1 4-1.66 3.94 3.94 0 0 1 1.43 4.79ZM157 150.27c-.73 1.78-3.8 4.74-5.3 3.87s-.86-5.23-.13-7a2.82 2.82 0 0 1 4-1.66 3.94 3.94 0 0 1 1.43 4.79ZM161.18 104.25a2.82 2.82 0 0 1-4 1.65 3.92 3.92 0 0 1-1.39-4.8c.73-1.78 1.28-.31 2.77.56s3.35.8 2.62 2.59Z"/><path fill="#eaa0ca" d="M108 143.92c0 3-2.06 5.48-4.6 5.48s-4.6-2.4-4.6-5.48 1.75-2.83 4.29-2.83 4.91-.19 4.91 2.83ZM101.34 172.64c0 3-2.06 5.48-4.61 5.48s-4.92.19-4.92-2.83 2.38-8.13 4.92-8.13 4.61 2.46 4.61 5.48Z"/><path fill="#e0adcd" d="M106.43 154.88a3.35 3.35 0 0 1-3 3.59c-1.67 0-3.34 1-3.34-.94s1.67-6.24 3.34-6.24a3.35 3.35 0 0 1 3 3.59ZM113.42 182.85c0 2-1 .94-2.7.94a3.64 3.64 0 0 1 0-7.18c1.66 0 2.7 4.25 2.7 6.24ZM122.63 174.91c0 2-1.67 6.23-3.34 6.23s-2.7-4.25-2.7-6.23a3.07 3.07 0 1 1 6 0ZM115.32 169.24c0 2-1.67 6.24-3.33 6.24s-2.7-4.26-2.7-6.24a3.06 3.06 0 1 1 6 0ZM112.46 150.73c0 2-1.67 6.23-3.33 6.23s-2.7-4.25-2.7-6.23a3.06 3.06 0 1 1 6 0Z"/><path fill="#eaa0ca" d="M143.82 214.85c-1.11 2.72-2.61 1.64-4.9.32s-3.24-4.6-2.13-7.32 3.87-3.86 6.16-2.53 1.98 6.81.87 9.53ZM124.3 193.05c-1.11 2.72-3.87 3.85-6.16 2.53s-4.5-2.39-3.38-5.11 5.13-6.07 7.41-4.74 3.24 4.6 2.13 7.32ZM106.5 188.78c-1.11 2.72-3.87 3.85-6.16 2.53s-4.49-2.39-3.38-5.11 5.13-6.07 7.42-4.75a6 6 0 0 1 2.12 7.33ZM137.52 265.69c-1.11 2.72-2.61 1.64-4.9.32s-3.24-4.6-2.13-7.32 3.88-3.86 6.16-2.53 1.98 6.84.87 9.53Z"/><path fill="#e0adcd" d="M138 190.84a2.83 2.83 0 0 1-4 1.66c-1.49-.87-3.38-.81-2.65-2.59s3.8-4.74 5.3-3.87a3.93 3.93 0 0 1 1.35 4.8ZM179.12 169.6c-.73 1.78-1.28.31-2.78-.56a3.91 3.91 0 0 1-1.39-4.8 2.82 2.82 0 0 1 4-1.65c1.53.86.9 5.23.17 7.01ZM130.76 188.76a2.82 2.82 0 0 1-4 1.66 3.92 3.92 0 0 1-1.4-4.8c.73-1.78 1.28-.31 2.78.56s3.35.82 2.62 2.58Z"/><path fill="#eaa0ca" d="M87.12 195.31c-1.2 2.67-2.67 1.52-4.91.1a6 6 0 0 1-1.89-7.41c1.2-2.67 4-3.67 6.23-2.25s1.77 6.89.57 9.56Z"/><path fill="#e0adcd" d="M92.51 201.74c-.78 1.75-1.28.26-2.75-.68a4 4 0 0 1-1.24-4.86 2.8 2.8 0 0 1 4.08-1.47c1.47.94.7 5.27-.09 7.01ZM80.48 199.66c-.79 1.75-4 4.57-5.42 3.63s-.69-5.26.09-7a2.8 2.8 0 0 1 4.09-1.48 4 4 0 0 1 1.24 4.85Z"/><path fill="#eaa0ca" d="M103 218.9a4.15 4.15 0 0 1-6.43-1.22 6.17 6.17 0 0 1 1-7.65c2.06-1.78 3 0 4.44 2.46s2.99 4.64.99 6.41Z"/><path fill="#e0adcd" d="M110.94 220.42c-1.35 1.16-5.23 2.05-6.2.44s1.31-5.09 2.66-6.26a2.72 2.72 0 0 1 4.21.81 4 4 0 0 1-.67 5.01ZM93.46 211c-1.35 1.16-5.22 2.05-6.2.45s1.31-5.1 2.66-6.26a2.72 2.72 0 0 1 4.22.8 4.05 4.05 0 0 1-.68 5.01ZM91.71 221.31a3.49 3.49 0 0 1-2.71-3.93c.17-2-.53-4 1.13-3.85s5.05 2.59 4.88 4.56-1.64 3.42-3.3 3.22Z"/><path fill="#eaa0ca" d="M113.21 205c1.23-2.65 2.68-1.48 4.91 0a6 6 0 0 1 1.81 7.44c-1.23 2.65-4 3.62-6.26 2.16s-1.67-6.95-.46-9.6Z"/><path fill="#e0adcd" d="M114.23 218.6c.8-1.74 1.28-.23 2.74.72a4 4 0 0 1 1.19 4.88 2.78 2.78 0 0 1-4.1 1.41c-1.46-.96-.64-5.27.17-7.01ZM122.14 211.71c.8-1.74 4-4.51 5.45-3.55s.64 5.28-.16 7a2.78 2.78 0 0 1-4.1 1.41 4 4 0 0 1-1.19-4.86ZM153.8 75.6c-1.08-1.51.28-1.51 1.55-2.8a2.7 2.7 0 0 1 4.25.42 4.06 4.06 0 0 1-.35 5.06c-1.25 1.28-4.37-1.17-5.45-2.68ZM140.22 83.08c0 2-1.67 6.24-3.34 6.24s-2.7-4.25-2.7-6.24a3.07 3.07 0 1 1 6 0Z"/><path fill="#eaa0ca" d="M87.07 221.85c-1.19 2.67-2.66 1.53-4.9.1a6 6 0 0 1-1.89-7.42c1.2-2.67 4-3.67 6.23-2.25s1.76 6.91.56 9.57Z"/><path fill="#e0adcd" d="M89.1 109.15c0 2-1 .94-2.7.94a3.64 3.64 0 0 1 0-7.18c1.67 0 2.7 4.25 2.7 6.24Z"/><path fill="none" stroke="#f43b3b" stroke-miterlimit="10" stroke-width="3" d="M9.42 305.57h450"/></g></g></svg>